<?xml version="1.0" encoding="utf-8"?>
<!-- Generator: Adobe Illustrator 23.0.0, SVG Export Plug-In . SVG Version: 6.00 Build 0)  -->
<svg version="1.1" id="Capa_1" xmlns="http://www.w3.org/2000/svg" xmlns:xlink="http://www.w3.org/1999/xlink" x="0px" y="0px"
	 viewBox="0 0 512 512" style="enable-background:new 0 0 512 512;" xml:space="preserve">
<style type="text/css">
	.st0{fill:#DB1F26;}
</style>
<g>
	<g>
		<g>
			<path class="st0" d="M210,89.6l-4.4-4.4l4.4-4.4c2.9-2.9,2.9-7.7,0-10.6c-2.9-2.9-7.7-2.9-10.6,0l-4.4,4.4l-4.4-4.4
				c-2.9-2.9-7.7-2.9-10.6,0c-2.9,2.9-2.9,7.7,0,10.6l4.4,4.4l-4.4,4.4c-2.9,2.9-2.9,7.7,0,10.6c1.5,1.5,3.4,2.2,5.3,2.2
				c1.9,0,3.8-0.7,5.3-2.2l4.4-4.4l4.4,4.4c1.5,1.5,3.4,2.2,5.3,2.2c1.9,0,3.8-0.7,5.3-2.2C212.9,97.2,212.9,92.5,210,89.6z"/>
			<path class="st0" d="M180,197.2c1.5,1.5,3.4,2.2,5.3,2.2c1.9,0,3.8-0.7,5.3-2.2l4.4-4.4l4.4,4.4c1.5,1.5,3.4,2.2,5.3,2.2
				c1.9,0,3.8-0.7,5.3-2.2c2.9-2.9,2.9-7.7,0-10.6l-4.4-4.4l4.4-4.4c2.9-2.9,2.9-7.7,0-10.6c-2.9-2.9-7.7-2.9-10.6,0l-4.4,4.4
				l-4.4-4.4c-2.9-2.9-7.7-2.9-10.6,0c-2.9,2.9-2.9,7.7,0,10.6l4.4,4.4l-4.4,4.4C177.1,189.6,177.1,194.3,180,197.2z"/>
			<path class="st0" d="M332,89.6l-4.4-4.4l4.4-4.4c2.9-2.9,2.9-7.7,0-10.6c-2.9-2.9-7.7-2.9-10.6,0l-4.4,4.4l-4.4-4.4
				c-2.9-2.9-7.7-2.9-10.6,0c-2.9,2.9-2.9,7.7,0,10.6l4.4,4.4l-4.4,4.4c-2.9,2.9-2.9,7.7,0,10.6c1.5,1.5,3.4,2.2,5.3,2.2
				c1.9,0,3.8-0.7,5.3-2.2l4.4-4.4l4.4,4.4c1.5,1.5,3.4,2.2,5.3,2.2c1.9,0,3.8-0.7,5.3-2.2C334.9,97.2,334.9,92.5,332,89.6z"/>
			<path class="st0" d="M302,197.2c1.5,1.5,3.4,2.2,5.3,2.2c1.9,0,3.8-0.7,5.3-2.2l4.4-4.4l4.4,4.4c1.5,1.5,3.4,2.2,5.3,2.2
				c1.9,0,3.8-0.7,5.3-2.2c2.9-2.9,2.9-7.7,0-10.6l-4.4-4.4l4.4-4.4c2.9-2.9,2.9-7.7,0-10.6c-2.9-2.9-7.7-2.9-10.6,0l-4.4,4.4
				l-4.4-4.4c-2.9-2.9-7.7-2.9-10.6,0c-2.9,2.9-2.9,7.7,0,10.6l4.4,4.4l-4.4,4.4C299.1,189.6,299.1,194.3,302,197.2z"/>
			<path d="M439.9,203.8c-9,0-17.8,2.4-25.4,6.8V105.2c0-4.1-3.4-7.5-7.5-7.5s-7.5,3.4-7.5,7.5v156.9H197.4c-4.1,0-7.5,3.4-7.5,7.5
				s3.4,7.5,7.5,7.5h204.8c0.4,0,0.9,0,1.3,0.1c1,0.5,2.2,0.9,3.4,0.9c4.2,1.8,7.2,6,7.2,11v38.8c0,6.6-5.3,11.9-11.9,11.9H109.8
				c-6.5,0-11.9-5.3-11.9-11.9V289c0-6.6,5.3-11.9,11.9-11.9h49.4c4.1,0,7.5-3.4,7.5-7.5s-3.4-7.5-7.5-7.5h-46.7V46.3
				c0-17.3,14-31.3,31.2-31.3h224.6c17.2,0,31.2,14.1,31.2,31.3v26.2c0,4.1,3.4,7.5,7.5,7.5s7.5-3.4,7.5-7.5V46.3
				c0-25.5-20.7-46.3-46.2-46.3H143.7c-25.5,0-46.2,20.8-46.2,46.3v164.3c-7.7-4.4-16.4-6.8-25.4-6.8c-28.2,0-51.1,23-51.1,51.2
				c0,10.3,3,20.1,8.7,28.6v83c0,23,16.8,42.1,38.7,45.7V454c0,12.6,8.7,23.2,20.3,26.1v19.5c0,6.8,5.5,12.4,12.3,12.4h48.4
				c6.8,0,12.3-5.5,12.3-12.4v-18.7h188.3v18.7c0,6.8,5.5,12.4,12.3,12.4h48.4c6.8,0,12.3-5.5,12.3-12.4v-19.5
				c11.7-2.9,20.3-13.5,20.3-26.1v-41.7c21.9-3.6,38.7-22.7,38.7-45.7v-83c5.7-8.5,8.7-18.3,8.7-28.6
				C491,226.8,468.1,203.8,439.9,203.8z M146.9,497h-43.1v-16.1h43.1V497z M408.2,497h-43.1v-16.1h43.1V497z M428.6,454
				c0,6.6-5.3,11.9-11.9,11.9H95.3c-6.5,0-11.9-5.3-11.9-11.9v-41h345.1L428.6,454L428.6,454z M468.8,276.7c-1,1.3-1.5,2.9-1.5,4.5
				v85.4c0,17.3-14,31.3-31.2,31.3H75.9c-17.2,0-31.2-14.1-31.2-31.3v-85.4c0-1.6-0.5-3.2-1.5-4.5c-4.7-6.3-7.2-13.8-7.2-21.7
				c0-19.9,16.2-36.2,36.1-36.2c9.5,0,18.7,3.8,25.4,10.5v35.7C88.9,269.6,83,278.6,83,289v38.8c0,14.8,12.1,26.9,26.9,26.9h292.4
				c14.8,0,26.9-12.1,26.9-26.9V289c0-10.4-5.9-19.4-14.5-23.9v-35.7c6.7-6.7,15.9-10.5,25.4-10.5c19.9,0,36.1,16.2,36.1,36.2
				C476,262.9,473.5,270.4,468.8,276.7z"/>
		</g>
	</g>
</g>
</svg>
