<?xml version="1.0" encoding="utf-8"?>
<!-- Generator: Adobe Illustrator 23.0.0, SVG Export Plug-In . SVG Version: 6.00 Build 0)  -->
<svg version="1.1" id="Capa_1" xmlns="http://www.w3.org/2000/svg" xmlns:xlink="http://www.w3.org/1999/xlink" x="0px" y="0px"
	 viewBox="0 0 512 512" style="enable-background:new 0 0 512 512;" xml:space="preserve">
<style type="text/css">
	.st0{fill:#DB1F26;}
</style>
<g>
	<g>
		<g>
			<path d="M499.6,0h-29.1c-6.8,0-12.4,5.5-12.4,12.4V136c-0.7-0.1-1.5-0.1-2.2-0.1h-23.6V61.4c0-4.5-2.3-8.5-6.1-10.9
				c-3.8-2.4-8.5-2.6-12.5-0.6l-28.1,14c-3.4,1.7-7.1,2.6-10.9,2.6h-43.2c-3.8,0-7.5-0.9-10.9-2.6l-28.1-14c-4-2-8.7-1.8-12.5,0.6
				c-3.8,2.4-6.1,6.4-6.1,10.9v74.5h-45.7V80.3c0-6.8-5.5-12.4-12.4-12.4h-19.4c-6.8,0-12.4,5.5-12.4,12.4v36.2h-57.8V80.3
				c0-6.8-5.5-12.4-12.4-12.4H94.9c-6.8,0-12.4,5.5-12.4,12.4v55.6H56c-0.7,0-1.5,0-2.2,0.1V12.4C53.8,5.5,48.3,0,41.5,0H12.4
				C5.5,0,0,5.5,0,12.4v487.3c0,6.8,5.5,12.4,12.4,12.4h29.1c6.8,0,12.4-5.5,12.4-12.4v-18.7h28.7v18.7c0,6.8,5.5,12.4,12.4,12.4
				h19.4c6.8,0,12.4-5.5,12.4-12.4v-47.8h57.8v47.8c0,6.8,5.5,12.4,12.4,12.4h19.4c6.8,0,12.4-5.5,12.4-12.4v-18.7h229.6v18.7
				c0,6.8,5.5,12.4,12.4,12.4h29.1c6.8,0,12.4-5.5,12.4-12.4V12.4C512,5.5,506.5,0,499.6,0z M38.8,142.1c-5.9,4.9-9.7,12.4-9.7,20.7
				v17.5c0,8.3,3.8,15.7,9.7,20.7v154.7c-5.9,4.9-9.7,12.4-9.7,20.7v17.5c0,8.3,3.8,15.7,9.7,20.7V497H15V15h23.8V142.1z
				 M82.5,465.9H53.8v0v-45.3c0.7,0.1,1.5,0.1,2.2,0.1h26.5V465.9z M82.5,405.8H56c-6.6,0-11.9-5.3-11.9-11.9v-17.5
				c0-6.6,5.3-11.9,11.9-11.9h26.5V405.8z M82.5,349.5H56c-0.7,0-1.5,0-2.2,0.1V233.2h28.7V349.5z M82.5,218.2H53.8v-11.1
				c0.7,0.1,1.5,0.1,2.2,0.1h26.5V218.2z M82.5,150.9v41.3H56c-6.6,0-11.9-5.3-11.9-11.9v-17.5c0-6.6,5.3-11.9,11.9-11.9L82.5,150.9
				L82.5,150.9z M213.6,497h-14.1v-52.7c0-4.1-3.4-7.5-7.5-7.5h-72.8c-4.1,0-7.5,3.4-7.5,7.5V497H97.5V82.9h14.1v41
				c0,4.1,3.4,7.5,7.5,7.5h72.8c4.1,0,7.5-3.4,7.5-7.5v-41h14.1L213.6,497L213.6,497z M228.6,207.2H456c0.7,0,1.5,0,2.2-0.1v11.1
				H228.6V207.2z M228.6,233.2h229.6v116.4c-0.7-0.1-1.5-0.1-2.2-0.1h-23.6v-71.4c0-4.5-2.3-8.5-6.1-10.9c-3.8-2.4-8.5-2.6-12.5-0.6
				l-28.1,14c-3.4,1.7-7.1,2.6-10.9,2.6h-43.2c-3.8,0-7.5-0.9-10.9-2.6l-28.1-14c-4-2-8.7-1.8-12.5,0.6c-3.8,2.4-6.1,6.4-6.1,10.9
				v71.4h-45.7L228.6,233.2L228.6,233.2z M458.2,465.9H228.6v-45.2H456c0.7,0,1.5,0,2.2-0.1V465.9z M467.9,393.8
				c0,6.6-5.3,11.9-11.9,11.9H228.6v-41.3H365c4.1,0,7.5-3.4,7.5-7.5s-3.4-7.5-7.5-7.5h-75.7v-67.8l24.9,12.4
				c5.4,2.7,11.5,4.2,17.6,4.2h43.2c6.1,0,12.2-1.4,17.6-4.2l24.9-12.4v67.8h-22.6c-4.1,0-7.5,3.4-7.5,7.5s3.4,7.5,7.5,7.5H456
				c6.6,0,11.9,5.3,11.9,11.9L467.9,393.8L467.9,393.8z M467.9,180.3c0,6.6-5.3,11.9-11.9,11.9H228.6v-41.3h137.8
				c4.1,0,7.5-3.4,7.5-7.5s-3.4-7.5-7.5-7.5h-77.1v-71l24.9,12.4c5.4,2.7,11.5,4.2,17.6,4.2h43.2c6.1,0,12.2-1.4,17.6-4.2l24.9-12.4
				v71h-21.8c-4.1,0-7.5,3.4-7.5,7.5s3.4,7.5,7.5,7.5H456c6.6,0,11.9,5.3,11.9,11.9V180.3z M497,497h-23.8v-82.5
				c5.9-4.9,9.7-12.4,9.7-20.7v-17.5c0-8.3-3.8-15.7-9.7-20.7V201c5.9-4.9,9.7-12.4,9.7-20.7v-17.5c0-8.3-3.8-15.7-9.7-20.7V15H497
				V497z"/>
			<path class="st0" d="M191.9,218.4h-72.8c-4.1,0-7.5,3.4-7.5,7.5v43.7c0,4.1,3.4,7.5,7.5,7.5h72.8c4.1,0,7.5-3.4,7.5-7.5v-43.7
				C199.4,221.8,196.1,218.4,191.9,218.4z M184.4,262.1h-57.8v-28.7h57.8V262.1z"/>
			<path class="st0" d="M191.9,145.6h-72.8c-4.1,0-7.5,3.4-7.5,7.5v43.7c0,4.1,3.4,7.5,7.5,7.5h72.8c4.1,0,7.5-3.4,7.5-7.5v-43.7
				C199.4,149,196.1,145.6,191.9,145.6z M184.4,189.3h-57.8v-28.7h57.8V189.3z"/>
			<path class="st0" d="M191.9,291.2h-72.8c-4.1,0-7.5,3.4-7.5,7.5v43.7c0,4.1,3.4,7.5,7.5,7.5h72.8c4.1,0,7.5-3.4,7.5-7.5v-43.7
				C199.4,294.6,196.1,291.2,191.9,291.2z M184.4,334.9h-57.8v-28.7h57.8V334.9z"/>
			<path class="st0" d="M191.9,364h-72.8c-4.1,0-7.5,3.4-7.5,7.5v43.7c0,4.1,3.4,7.5,7.5,7.5h72.8c4.1,0,7.5-3.4,7.5-7.5v-43.7
				C199.4,367.4,196.1,364,191.9,364z M184.4,407.7h-57.8V379h57.8V407.7z"/>
		</g>
	</g>
</g>
</svg>
