<?xml version="1.0" encoding="utf-8"?>
<!-- Generator: Adobe Illustrator 23.0.0, SVG Export Plug-In . SVG Version: 6.00 Build 0)  -->
<svg version="1.1" id="Layer_1" xmlns="http://www.w3.org/2000/svg" xmlns:xlink="http://www.w3.org/1999/xlink" x="0px" y="0px"
	 viewBox="0 0 512 512" style="enable-background:new 0 0 512 512;" xml:space="preserve">
<style type="text/css">
	.st0{fill:none;}
	.st1{fill:#E51E26;}
</style>
<g>
	<rect x="240" y="344" class="st0" width="16" height="32"/>
	<path class="st0" d="M219.1,216l0.5-2.1c-10.3-9-23.6-13.9-37.2-13.9h-52.2c-1.1,0-2.3,0.2-3.3,0.7c-4,1.8-5.8,6.6-4,10.6l2.1,4.7
		H219.1z"/>
	<path class="st0" d="M345.8,152c12.2,0,24.3,2.2,35.7,6.5L390,120H256.8l-9.8,44c8.8-7.8,20.1-12,31.8-12H345.8z"/>
	<path class="st0" d="M187,168h-67c-4.7,0-9.3,1-13.5,3c-16,7.5-22.9,26.5-15.5,42.5l1.8,3.8c3.7-0.9,7.4-1.3,11.2-1.3h3.5
		c-0.9-2.6-1.4-5.3-1.4-8c0-13.2,10.7-24,24-24h52.2c14.7,0,29,4.4,41.1,12.6l4.1-18.3C215.1,171.6,201.2,168,187,168z"/>
	<path class="st0" d="M382.7,440c-2.5-7.7-8.4-13.8-16-16.5l-80.9-28.9l-5.7,22.9l73.1,22.5H382.7z"/>
	<polygon class="st0" points="285.6,394.5 279.9,417.4 280.1,417.5 285.8,394.6 	"/>
	<path class="st0" d="M256.2,104h132.7l-1.9-5.6c-7.4-22.1-4.9-46.3,6.9-66.4H271.5c-5.3,0-10.2,2.8-12.9,7.3
		c-9.8,16.3-11.9,36-5.9,54L256.2,104z"/>
	<path class="st0" d="M400,448c0,1.9-0.7,3.7-1.9,5.2c2.7,7.4,2.5,15.4-0.4,22.7c-6.6,16.4-25.2,24.4-41.6,17.9
		c-16.4-6.6-24.4-25.2-17.9-41.6L276.2,433l-2.7,10.8l57,54.5l64.3,12.2l23.3-21.3c0,0,7.7-60.2,7.3-61
		c-0.3-0.8-23.2-38.2-23.2-38.2L319,371.5l-29,6.1l-0.3,1.4l82.4,29.4C388.8,414.4,400,430.2,400,448z"/>
	<path class="st0" d="M354.2,456c-1.4,2.4-2.2,5.2-2.2,8c0,8.8,7.2,16,16,16c2.8,0,5.6-0.7,8-2.2c7.6-4.4,10.2-14.2,5.8-21.8H354.2z
		"/>
	<path class="st0" d="M220.2,232H104c-17.7,0-32,14.3-32,32s14.3,32,32,32h116.3C203.9,277.8,203.9,250.2,220.2,232z"/>
	<path class="st0" d="M345.8,168h-67c-4.7,0-9.3,1-13.5,3c-16,7.5-22.9,26.5-15.5,42.5l25.5,54.7c1.1,2.3,3.4,3.8,6,3.8
		c0.9,0,1.9-0.2,2.7-0.6c3.3-1.5,4.8-5.4,3.3-8.8L267,217.9c-1.4-3.1-2.2-6.5-2.2-9.9c0-13.3,10.7-24,24-24h52.2
		c19.4-0.1,37.9,7.6,51.6,21.4c1.7,1.7,4,2.6,6.3,2.6c5,0,9-4,9-9c0-2.4-0.9-4.7-2.6-6.3C389.6,176.8,368.1,167.9,345.8,168z"/>
	<path class="st0" d="M114.2,456c-1.4,2.4-2.2,5.2-2.2,8c0,8.8,7.2,16,16,16c2.8,0,5.6-0.7,8-2.2c7.6-4.4,10.2-14.2,5.8-21.8H114.2z
		"/>
	<path class="st0" d="M384.4,219.2L378,248h15.8l6-24c-0.2,0-0.5,0-0.7,0C393.8,224,388.6,222.3,384.4,219.2z"/>
	<path class="st0" d="M428.8,34.2c-7.1-4.3-16.4-2-20.7,5.2c-9.8,16.3-11.9,36-5.9,54l5.4,16.1c0.5,1.4,0.5,2.8,0.2,4.3l-11.5,51.9
		c5.4,3.2,10.6,6.9,15.3,11l23.3-93.4c3.2-12.8,3.5-26.2,0.9-39.1C435,40,432.5,36.3,428.8,34.2z"/>
	<path class="st0" d="M129.3,423.5c-7.6,2.7-13.5,8.8-16,16.5h29.5l80.6-24.8c0.1,0,0.3-0.1,0.4-0.1c4.3-1.1,8.6,1.5,9.7,5.8
		l4.8,19.1h19.5l12-48h-52.4L129.3,423.5z"/>
	<path class="st0" d="M311.2,236.4c3.5,7.1,10.8,11.6,18.7,11.6h31.7l8.9-39.9c-8.9-5.3-19-8.1-29.4-8.1h-52.2
		c-1.1,0-2.3,0.2-3.3,0.7c-4,1.8-5.8,6.6-4,10.6l2.3,5.1C295.7,218.3,305.8,225.7,311.2,236.4z"/>
	<rect x="240" y="456" class="st0" width="16" height="24"/>
	<path class="st0" d="M296.8,243.6c-0.6-1.2-1.4-2.4-2.2-3.5l7.2,15.9c5.1,11.3,0.2,24.6-11,29.9c-11.3,5.3-24.8,0.4-30.1-10.9
		l-18.6-39.8c-11.1,5.3-18.2,16.5-18.2,28.9c0,17.7,14.3,32,32,32h136v-32h-62.1C315.9,264,303.1,256.1,296.8,243.6z"/>
	<path class="st1" d="M366.7,423.5c7.6,2.7,13.5,8.8,16,16.5h-29.5l-73.1-22.5l-3.9,15.5l62.1,19.1c-6.6,16.4,1.4,35,17.9,41.6
		c16.4,6.6,35-1.4,41.6-17.9c2.9-7.3,3-15.4,0.4-22.7c1.2-1.4,1.9-3.3,1.9-5.2c0-17.8-11.2-33.6-27.9-39.6L289.7,379l-3.9,15.6
		L366.7,423.5z M376,477.8c-2.4,1.4-5.2,2.2-8,2.2c-8.8,0-16-7.1-16-16c0-2.8,0.7-5.6,2.2-8h27.7C386.3,463.6,383.7,473.4,376,477.8
		z"/>
	<path d="M451.6,41c-2.9-14.5-15.7-25-30.5-25H271.5c-10.9,0-21,5.7-26.7,15.1c-12.2,20.3-14.9,44.9-7.4,67.3l4.7,14l-11.1,49.8
		c-13.7-6.7-28.8-10.2-44-10.2h-67c-26.5,0-48,21.5-48,48c0,7,1.5,13.9,4.5,20.3l1.5,3.3c-22.3,14.3-28.8,44-14.5,66.3
		C72.4,303.7,87.6,312,104,312h136v16h-8c-4.4,0-8,3.6-8,8v40h-8c-0.9,0-1.8,0.2-2.7,0.5l-89.4,31.9c-16.7,6-27.9,21.8-27.9,39.6
		c0,1.9,0.7,3.7,1.9,5.2c-6,16.6,2.7,35,19.3,40.9c16.6,6,35-2.7,40.9-19.3c2.6-7.3,2.5-15.4-0.4-22.6L220,433l4,16v39
		c0,4.4,3.6,8,8,8h32c4.4,0,8-3.6,8-8v-39l4-16l0.2,0.1l3.9-15.5l-0.2-0.1l5.7-22.9l0.1,0.1l3.9-15.6l-7-2.5
		c-0.9-0.3-1.8-0.5-2.7-0.5h-8v-40c0-4.4-3.6-8-8-8h-8v-16h144c4.4,0,8-3.6,8-8v-47l10.6-42.5c3.5-4.4,5.4-9.8,5.4-15.4
		c0-1.5-0.1-3-0.4-4.4l26.9-107.4C454.2,72,454.6,56.3,451.6,41z M258.5,39.3c2.7-4.5,7.6-7.3,12.9-7.3h122.4
		c-11.7,20.1-14.2,44.3-6.9,66.4l1.9,5.6H256.2l-3.6-10.7C246.6,75.3,248.8,55.6,258.5,39.3z M256.8,120H390l-8.6,38.5
		c-11.4-4.3-23.5-6.5-35.7-6.5h-67c-11.7,0-23,4.3-31.8,12L256.8,120z M104,296c-17.7,0-32-14.3-32-32s14.3-32,32-32h116.2
		c-16.3,18.2-16.2,45.8,0.1,64H104z M126.8,200.7c1-0.5,2.2-0.7,3.3-0.7h52.2c13.7,0,26.9,4.9,37.2,13.9l-0.5,2.1h-94.2l-2.1-4.7
		C121,207.3,122.8,202.5,126.8,200.7z M182.3,184h-52.2c-13.2,0-24,10.7-24,24c0,2.7,0.5,5.4,1.4,8H104c-3.8,0-7.5,0.4-11.2,1.3
		l-1.8-3.8c-7.5-16-0.5-35.1,15.5-42.5c4.2-2,8.9-3,13.5-3h67c14.1,0,28,3.6,40.4,10.3l-4.1,18.3C211.3,188.4,197,184,182.3,184z
		 M240,344h16v32h-16V344z M136,477.8c-2.4,1.4-5.2,2.2-8,2.2c-8.8,0-16-7.1-16-16c0-2.8,0.7-5.6,2.2-8h27.7
		C146.3,463.6,143.7,473.4,136,477.8z M256,480h-16v-24h16V480z M269.8,392l-12,48h-19.5l-4.8-19.1c-1.1-4.3-5.4-6.9-9.7-5.8
		c-0.1,0-0.3,0.1-0.4,0.1L142.8,440h-29.5c2.5-7.7,8.4-13.8,16-16.5l88.1-31.5H269.8z M392,296H256c-17.7,0-32-14.3-32-32
		c0-12.3,7.1-23.6,18.2-28.9l18.6,39.8c5.3,11.3,18.7,16.2,30.1,10.9c11.2-5.2,16.2-18.6,11-29.9l-7.2-15.9c0.8,1.1,1.6,2.3,2.2,3.5
		c6.2,12.5,19,20.5,33,20.4H392V296z M283.9,216.5l-2.3-5.1c-1.8-4,0-8.8,4-10.6c1-0.5,2.2-0.7,3.3-0.7h52.2
		c10.3,0,20.5,2.8,29.4,8.1l-8.9,39.9h-31.7c-7.9,0-15.2-4.5-18.7-11.6C305.8,225.7,295.7,218.3,283.9,216.5z M393.8,248H378
		l6.4-28.8c4.3,3.1,9.4,4.8,14.7,4.8c0.2,0,0.5,0,0.7,0L393.8,248z M399,208c-2.4,0-4.7-0.9-6.3-2.6c-13.7-13.7-32.2-21.4-51.6-21.4
		h-52.2c-13.3,0-24,10.7-24,24c0,3.4,0.7,6.8,2.2,9.9l20.3,44.7c1.5,3.3,0,7.2-3.3,8.8c-0.9,0.4-1.8,0.6-2.7,0.6
		c-2.6,0-4.9-1.5-6-3.8l-25.5-54.7c-7.5-16-0.5-35.1,15.5-42.5c4.2-2,8.9-3,13.5-3h67c22.4-0.1,43.8,8.8,59.6,24.7
		c1.7,1.7,2.6,4,2.6,6.3C408,204,404,208,399,208z M434.9,83.3l-23.3,93.4c-4.7-4.1-9.9-7.8-15.3-11l11.5-51.9
		c0.3-1.4,0.2-2.9-0.2-4.3l-5.4-16.1c-6-18-3.8-37.7,5.9-54c4.3-7.1,13.6-9.5,20.7-5.2c3.6,2.2,6.2,5.8,7,10
		C438.4,57.1,438.1,70.5,434.9,83.3z"/>
</g>
</svg>
