<?xml version="1.0" encoding="utf-8"?>
<!-- Generator: Adobe Illustrator 23.0.0, SVG Export Plug-In . SVG Version: 6.00 Build 0)  -->
<svg version="1.1" id="Capa_1" xmlns="http://www.w3.org/2000/svg" xmlns:xlink="http://www.w3.org/1999/xlink" x="0px" y="0px"
	 viewBox="0 0 512 512" style="enable-background:new 0 0 512 512;" xml:space="preserve">
<g>
	<g>
		<path d="M459.3,164v-12.5c0-12.4-10.1-22.5-22.5-22.5H431V65h70V27.5C501,12.3,488.7,0,473.5,0h-130C328.3,0,316,12.3,316,27.5V65
			h16.9v47.5h15V65H386v64h-5.8c-12.4,0-22.5,10.1-22.5,22.5V164H0v45h11v50h10v238h-9.8v15H21h152.5h9.8v-15h-9.8v-72.5l39.8-26.5
			h85.5l39.8,26.5V497h-9.8v15h9.8H491h9.8v-15H491V259h10v-50h11v-45H459.3z M330.9,50V27.5c0-6.9,5.6-12.5,12.5-12.5h130
			c6.9,0,12.5,5.6,12.5,12.5V50H330.9z M415.9,65v64h-15V65H415.9z M372.6,151.5L372.6,151.5c0-4.1,3.4-7.5,7.5-7.5h56.7
			c4.1,0,7.5,3.4,7.5,7.5V164h-71.7L372.6,151.5L372.6,151.5z M158.5,416.5V497H36V259h122.5V416.5z M338.5,406.5L303.3,383h-94.5
			l-35.2,23.5V259h165L338.5,406.5L338.5,406.5z M476,497H353.5v-80.5V259H476V497z M486,244H338.5h-165H26v-35h460V244z M497,194
			H15v-15h342.6h101.7H497V194z"/>
	</g>
</g>
<g>
	<g>
		<path d="M51,274v96.5h92.5V274H51z M128.5,355.5H66V289h62.5V355.5z"/>
	</g>
</g>
<g>
	<g>
		<path d="M51,385.5V482h92.5v-96.5H51z M128.5,467H66v-66.5h62.5V467z"/>
	</g>
</g>
<g>
	<g>
		<path d="M368.5,274v96.5H461V274H368.5z M446,355.5h-62.5V289H446V355.5z"/>
	</g>
</g>
<g>
	<g>
		<path d="M368.5,385.5V482H461v-96.5H368.5z M446,467h-62.5v-66.5H446V467z"/>
	</g>
</g>
<g>
	<g>
		<path d="M203.5,274v64h105v-64H203.5z M293.5,323h-75v-34h75V323z"/>
	</g>
</g>
<g>
	<g>
		<rect x="295" y="353" width="15" height="15"/>
	</g>
</g>
<g>
	<g>
		<rect x="202" y="353" width="15" height="15"/>
	</g>
</g>
<g>
	<g>
		<rect x="233" y="353" width="15" height="15"/>
	</g>
</g>
<g>
	<g>
		<rect x="264" y="353" width="15" height="15"/>
	</g>
</g>
</svg>
