<?xml version="1.0" encoding="utf-8"?>
<!-- Generator: Adobe Illustrator 23.0.0, SVG Export Plug-In . SVG Version: 6.00 Build 0)  -->
<svg version="1.1" id="Capa_1" xmlns="http://www.w3.org/2000/svg" xmlns:xlink="http://www.w3.org/1999/xlink" x="0px" y="0px"
	 viewBox="0 0 512 512" style="enable-background:new 0 0 512 512;" xml:space="preserve">
<style type="text/css">
	.st0{fill:#DB1F26;}
</style>
<g>
	<g>
		<g>
			<path class="st0" d="M303.6,405h-20.6V221.3H354c6.8,0,12.4-5.5,12.4-12.3v-20.6h45.9c6.8,0,12.4-5.5,12.4-12.3V147
				c0-6.8-5.5-12.3-12.4-12.3H99.7c-6.8,0-12.4,5.5-12.4,12.3V176c0,6.8,5.5,12.3,12.4,12.3h45.9V209c0,6.8,5.5,12.3,12.4,12.3h71.1
				V405h-20.6c-18.6,0-33.7,15.1-33.7,33.7c0,6.8,5.5,12.3,12.4,12.3h82.5c4.1,0,7.5-3.4,7.5-7.5s-3.4-7.5-7.5-7.5h-79.7
				c1.3-9,9.1-16,18.5-16h95.1c9.4,0,17.2,7,18.5,16h-23.4c-4.1,0-7.5,3.4-7.5,7.5s3.4,7.5,7.5,7.5h26.2c6.8,0,12.4-5.5,12.4-12.3
				C337.3,420.1,322.2,405,303.6,405z M267.9,405h-23.8V221.3h23.8V405z M236.6,206.3h-76v-17.9h20.3c4.1,0,7.5-3.4,7.5-7.5
				s-3.4-7.5-7.5-7.5h-78.6v-23.8h307.3v23.8H210c-4.1,0-7.5,3.4-7.5,7.5s3.4,7.5,7.5,7.5h141.3v17.9h-76H236.6z"/>
			<path d="M143.4,256.7H53.8V102.4C53.8,79.6,35.2,61,12.4,61C5.5,61,0,66.5,0,73.3v215.1c0,7.6,3.9,14.3,9.7,18.2v18.6
				c0,5.9,4.2,10.8,9.7,12.1v104.3c0,4.1,3.4,7.5,7.5,7.5s7.5-3.4,7.5-7.5V386h91.8v55.5c0,4.1,3.4,7.5,7.5,7.5s7.5-3.4,7.5-7.5
				V337.3c5.5-1.2,9.7-6.2,9.7-12.1v-16.1c8.5-3.1,14.6-11.2,14.6-20.7v-9.7C165.5,266.6,155.6,256.7,143.4,256.7z M126.2,371H34.4
				v-33.4h91.8V371z M135.9,322.6H24.7v-12.1h111.2L135.9,322.6L135.9,322.6z M150.5,288.4c0,3.9-3.2,7-7.1,7H22.1
				c-3.9,0-7.1-3.2-7.1-7V76.1c13.4,1.3,23.8,12.6,23.8,26.3v161.8c0,4.1,3.4,7.5,7.5,7.5h97.1c3.9,0,7.1,3.2,7.1,7V288.4z"/>
			<path d="M499.6,61c-22.9,0-41.5,18.6-41.5,41.4v154.3h-89.6c-12.2,0-22.1,9.9-22.1,22v9.7c0,9.5,6.1,17.6,14.6,20.7v16.1
				c0,5.9,4.2,10.8,9.7,12.1v104.3c0,4.1,3.4,7.5,7.5,7.5s7.5-3.4,7.5-7.5V386h91.8v55.5c0,4.1,3.4,7.5,7.5,7.5s7.5-3.4,7.5-7.5
				V337.3c5.5-1.2,9.7-6.2,9.7-12.1v-18.6c5.9-4,9.7-10.7,9.7-18.2V73.3C512,66.5,506.5,61,499.6,61z M477.6,371h-91.8v-33.4h91.8
				V371z M487.3,322.6H376.1v-12.1h111.2V322.6z M497,288.4c0,3.9-3.2,7-7.1,7H368.6c-3.9,0-7.1-3.2-7.1-7v-9.7c0-3.9,3.2-7,7.1-7
				h97.1c4.1,0,7.5-3.4,7.5-7.5V102.4c0-13.7,10.5-24.9,23.8-26.3V288.4z"/>
		</g>
	</g>
</g>
</svg>
