<?xml version="1.0" encoding="utf-8"?>
<!-- Generator: Adobe Illustrator 23.0.0, SVG Export Plug-In . SVG Version: 6.00 Build 0)  -->
<svg version="1.1" id="Capa_1" xmlns="http://www.w3.org/2000/svg" xmlns:xlink="http://www.w3.org/1999/xlink" x="0px" y="0px"
	 viewBox="0 0 512 512" style="enable-background:new 0 0 512 512;" xml:space="preserve">
<style type="text/css">
	.st0{fill:#DB1F26;}
</style>
<g>
	<circle class="st0" cx="196" cy="196" r="10"/>
	<path class="st0" d="M196,416c5.5,0,10-4.5,10-10v-21.3c17.2-4.5,30-20.1,30-38.7c0-22.1-17.9-40-40-40s-40,17.9-40,40
		c0,18.6,12.8,34.3,30,38.7V406C186,411.5,190.5,416,196,416z M176,346c0-11,9-20,20-20s20,9,20,20s-9,20-20,20S176,357,176,346z"/>
	<path d="M406,156h-80V70c0-5.5-4.5-10-10-10h-28.7C271.4,23.8,235.6,0,196,0s-75.4,23.8-91.3,60H76c-5.5,0-10,4.5-10,10v141
		c0,5.5,4.5,10,10,10s10-4.5,10-10V80h25.5c4.2,0,8-2.7,9.4-6.7C132.3,41.4,162.4,20,196,20s63.7,21.4,75.1,53.3
		c1.4,4,5.2,6.7,9.4,6.7H306v76h-52.6c-13-18.6-34.5-30-57.4-30c-38.6,0-70,31.4-70,70s31.4,70,70,70c22.9,0,44.4-11.4,57.4-30H306
		v196h-25.5c-4.2,0-8,2.7-9.4,6.6C259.7,470.6,229.6,492,196,492s-63.7-21.4-75.1-53.4c-1.4-4-5.2-6.6-9.4-6.6H86V301
		c0-5.5-4.5-10-10-10s-10,4.5-10,10v141c0,5.5,4.5,10,10,10h28.7c15.8,36.2,51.7,60,91.3,60s75.4-23.8,91.3-60H316
		c5.5,0,10-4.5,10-10V236h80c22.1,0,40-17.9,40-40S428.1,156,406,156z M196,246c-27.6,0-50-22.4-50-50s22.4-50,50-50
		c27.3,0,50,22.1,50,50C246,223.9,223.3,246,196,246z M406,216H263.1c1.9-6.5,2.9-13.2,2.9-20s-1-13.5-2.9-20H406c11,0,20,9,20,20
		S417,216,406,216z"/>
	<circle class="st0" cx="76" cy="256" r="10"/>
</g>
</svg>
