<?xml version="1.0" encoding="utf-8"?>
<!-- Generator: Adobe Illustrator 23.0.0, SVG Export Plug-In . SVG Version: 6.00 Build 0)  -->
<svg version="1.1" id="Capa_1" xmlns="http://www.w3.org/2000/svg" xmlns:xlink="http://www.w3.org/1999/xlink" x="0px" y="0px"
	 viewBox="0 0 512 512" style="enable-background:new 0 0 512 512;" xml:space="preserve">
<g>
	<g>
		<g>
			<path d="M217.2,121.8h77.7c4.1,0,7.5-3.4,7.5-7.5s-3.4-7.5-7.5-7.5h-77.7c-4.1,0-7.5,3.4-7.5,7.5S213,121.8,217.2,121.8z"/>
			<path d="M499.6,345c6.8,0,12.4-5.5,12.4-12.4v-29.1c0-6.8-5.5-12.4-12.4-12.4H332.5c1.8-3.6,2.8-7.6,2.8-11.9V248h2.2
				c4.1,0,7.5-3.4,7.5-7.5s-3.4-7.5-7.5-7.5h-41v-2.2c0-4.1-3.4-7.5-7.5-7.5s-7.5,3.4-7.5,7.5v2.2h-41c-4.1,0-7.5,3.4-7.5,7.5
				s3.4,7.5,7.5,7.5h2.2v31.3c0,4.3,1,8.3,2.8,11.9H180V150.9h169.4v21.6c0,9.5,7.7,17.2,17.2,17.2h2.2v50.4
				c0,9.6,7.9,17.5,17.5,17.5h38.2c9.6,0,17.5-7.9,17.5-17.5v-50.4h2.2c9.5,0,17.2-7.7,17.2-17.2v-21.6h9c6.8,0,12.4-5.5,12.4-12.4
				V53.8h16.8c6.8,0,12.4-5.5,12.4-12.4v-29C512,5.5,506.5,0,499.6,0H12.4C5.5,0,0,5.5,0,12.4v29.1c0,6.8,5.5,12.4,12.4,12.4h16.8
				v79.9v4.9v152.7H12.4c-6.8,0-12.4,5.5-12.4,12.4v29.1c0,6.8,5.5,12.4,12.4,12.4h16.8v113.1H12.4c-6.8,0-12.4,5.5-12.4,12.4v29.1
				c0,6.8,5.5,12.4,12.4,12.4h392.2c4.1,0,7.5-3.4,7.5-7.5s-3.4-7.5-7.5-7.5H15v-23.8h482V497h-61.9c-4.1,0-7.5,3.4-7.5,7.5
				s3.4,7.5,7.5,7.5h64.6c6.8,0,12.4-5.5,12.4-12.4v-29.1c0-6.8-5.5-12.4-12.4-12.4h-16.8V345H499.6z M257.7,248h62.7v31.3
				c0,6.6-5.3,11.9-11.9,11.9h-38.8c-6.6,0-11.9-5.3-11.9-11.9V248H257.7z M332,135.9H180V53.8h152V135.9z M427.1,240.2
				c0,1.4-1.1,2.5-2.5,2.5h-38.2c-1.4,0-2.5-1.1-2.5-2.5v-57.7c0-1.4,1.1-2.5,2.5-2.5h38.2c1.4,0,2.5,1.1,2.5,2.5V240.2z
				 M446.5,172.5c0,1.2-1,2.2-2.2,2.2h-4.1c-2.9-5.7-8.8-9.7-15.6-9.7h-38.2c-6.8,0-12.8,4-15.6,9.7h-4.1c-1.2,0-2.2-1-2.2-2.2
				v-21.6h82.1L446.5,172.5L446.5,172.5z M467.9,135.9H347V53.8h120.9V135.9z M15,38.8V15h482v23.8H104.6c-4.1,0-7.5,3.4-7.5,7.5
				s3.4,7.5,7.5,7.5H165v82.1H44.1v-2.2V53.8h30.7c4.1,0,7.5-3.4,7.5-7.5s-3.4-7.5-7.5-7.5H15z M133.7,252.4H75.5
				c-6.8,0-12.4,5.5-12.4,12.4c0,10.1,3.6,19.3,9.6,26.5H44.1v-52.9h50.7h19.4H165v52.9h-28.6c6-7.2,9.6-16.4,9.6-26.5
				C146,257.9,140.5,252.4,133.7,252.4z M130.9,267.4c-1.3,13.4-12.6,23.8-26.3,23.8s-25-10.5-26.3-23.8H130.9z M126.3,193.9
				c-0.1,0.1-0.1,0.2-0.2,0.2H83c-0.1-0.1-0.1-0.2-0.2-0.2c-2.4-2.5-4-5.6-4.5-9h52.5C130.3,188.3,128.7,191.4,126.3,193.9z
				 M130.8,209.1c-1.3,8-8.2,14.1-16.6,14.1H94.9c-8.3,0-15.3-6.1-16.6-14.1H130.8z M141.2,223.3c3-4.9,4.8-10.6,4.8-16.8
				c0-3.5-1.5-6.7-3.9-9c2.5-4.6,3.9-9.9,3.9-15.3c0-6.8-5.5-12.4-12.4-12.4H75.5c-6.8,0-12.4,5.5-12.4,12.4
				c0,5.4,1.4,10.6,3.9,15.3c-2.4,2.3-3.9,5.4-3.9,9c0,6.2,1.8,11.9,4.8,16.8H44.1v-72.4H165l0,0v72.4L141.2,223.3L141.2,223.3z
				 M248.5,458.2H44.1V345h204.4V458.2z M467.9,458.2H263.5V345h204.4V458.2z M15,330v-23.8h482V330H15z"/>
			<path d="M386.1,121.8h38.8c4.1,0,7.5-3.4,7.5-7.5s-3.4-7.5-7.5-7.5h-38.8c-4.1,0-7.5,3.4-7.5,7.5S381.9,121.8,386.1,121.8z"/>
			<path d="M221.1,422.7c4.1,0,7.5-3.4,7.5-7.5v-38.8c0-4.1-3.4-7.5-7.5-7.5s-7.5,3.4-7.5,7.5v38.8
				C213.6,419.3,216.9,422.7,221.1,422.7z"/>
			<path d="M77.7,114.3c0,4.1,3.4,7.5,7.5,7.5H124c4.1,0,7.5-3.4,7.5-7.5s-3.4-7.5-7.5-7.5H85.2C81,106.8,77.7,110.1,77.7,114.3z"/>
			<path d="M289,422.7c4.1,0,7.5-3.4,7.5-7.5v-38.8c0-4.1-3.4-7.5-7.5-7.5s-7.5,3.4-7.5,7.5v38.8C281.5,419.3,284.9,422.7,289,422.7
				z"/>
		</g>
	</g>
</g>
</svg>
