<?xml version="1.0" encoding="utf-8"?>
<!-- Generator: Adobe Illustrator 23.0.0, SVG Export Plug-In . SVG Version: 6.00 Build 0)  -->
<svg version="1.1" id="Capa_1" xmlns="http://www.w3.org/2000/svg" xmlns:xlink="http://www.w3.org/1999/xlink" x="0px" y="0px"
	 viewBox="0 0 512 512" style="enable-background:new 0 0 512 512;" xml:space="preserve">
<style type="text/css">
	.st0{fill:#DB1F26;}
</style>
<g>
	<g>
		<g>
			<path d="M399.9,443.8c-5-11.1-15.3-19.3-27.9-21l-79.9-11.1v-25.6c0-8.3-3.7-15.7-9.6-20.6v-49.5h64.2h28.7
				c20,0,36.2-16.4,36.2-36.6v-97.1c0-20.2-16.2-36.6-36.2-36.6c-3.7,0-7.3,0.6-10.7,1.6V56c0-14.8-11.9-26.9-26.6-26.9h-14.4
				c0.1-0.7,0.1-1.5,0.1-2.2C323.9,12.1,312,0,297.3,0h-82.6c-14.7,0-26.6,12.1-26.6,26.9c0,0.7,0,1.5,0.1,2.2h-14.4
				c-14.7,0-26.6,12.1-26.6,26.9v91.2c-3.4-1.1-7-1.6-10.7-1.6c-20,0-36.2,16.4-36.2,36.6v97.1c0,20.2,16.2,36.6,36.2,36.6h28.7
				h20.2v7.3l-34.2,17.3c-3.7,1.9-5.2,6.4-3.3,10.1c1.3,2.6,4,4.1,6.7,4.1c1.1,0,2.3-0.3,3.4-0.8l38.3-19.4c2.5-1.3,4.1-3.9,4.1-6.7
				v-11.9h29v49.5c-5.8,4.9-9.6,12.4-9.6,20.6v25.6l-79.9,11.1c-12.5,1.7-22.8,10-27.9,21c-16.1,1.9-28.6,15.7-28.6,32.5v2.9
				c0,18.1,14.5,32.7,32.4,32.7h2.9c17.8,0,32.4-14.7,32.4-32.7v-2.9c0-1.7-0.1-3.4-0.4-5.1h71.9c-0.3,1.7-0.4,3.4-0.4,5.1v2.9
				c0,18.1,14.5,32.7,32.4,32.7h2.9c17.8,0,32.4-14.7,32.4-32.7v-2.9c0-1.7-0.1-3.4-0.4-5.1h71.9c-0.3,1.7-0.4,3.4-0.4,5.1v2.9
				c0,18.1,14.5,32.7,32.4,32.7h2.9c17.8,0,32.4-14.7,32.4-32.7v-2.9C428.5,459.6,416,445.7,399.9,443.8z M354.4,182.2
				c0-11.9,9.5-21.6,21.2-21.6s21.2,9.7,21.2,21.6v97.1c0,11.9-9.5,21.6-21.2,21.6h-21.2v-23.8h3c14.7,0,26.6-12.1,26.6-26.9v-17.5
				c0-14.8-11.9-26.9-26.6-26.9h-3L354.4,182.2L354.4,182.2z M157.6,300.9h-21.2c-11.7,0-21.2-9.7-21.2-21.6v-97.1
				c0-11.9,9.5-21.6,21.2-21.6s21.2,9.7,21.2,21.6v23.6h-3c-14.7,0-26.6,12.1-26.6,26.9v17.5c0,14.8,11.9,26.9,26.6,26.9h3V300.9z
				 M154.6,262.1c-6.4,0-11.6-5.3-11.6-11.9v-17.5c0-6.6,5.2-11.9,11.6-11.9h47.8c4.1,0,7.5-3.4,7.5-7.5s-3.4-7.5-7.5-7.5h-29.8
				v-23.6c0-10-4-19.2-10.5-25.8V56c0-6.6,5.2-11.9,11.6-11.9h20.5c4.9,5.9,12.2,9.7,20.5,9.7h28.9c4.1,0,7.5-3.4,7.5-7.5
				s-3.4-7.5-7.5-7.5h-28.9c-6.4,0-11.6-5.3-11.6-11.9S208.3,15,214.7,15h82.6c6.4,0,11.6,5.3,11.6,11.9s-5.2,11.9-11.6,11.9h-25.8
				c-4.1,0-7.5,3.4-7.5,7.5s3.4,7.5,7.5,7.5h25.8c8.2,0,15.6-3.8,20.5-9.7h20.5c6.4,0,11.6,5.3,11.6,11.9v100.4
				c-6.5,6.6-10.5,15.7-10.5,25.8v23.6H231.8c-4.1,0-7.5,3.4-7.5,7.5s3.4,7.5,7.5,7.5h125.5c6.4,0,11.6,5.3,11.6,11.9v17.5
				c0,6.6-5.2,11.9-11.6,11.9H154.6z M172.6,300.9v-23.8h166.7v23.8H172.6z M244.4,315.9h23.3v43.3c-0.7-0.1-1.4-0.1-2.1-0.1h-19.1
				c-0.7,0-1.4,0-2.1,0.1L244.4,315.9L244.4,315.9z M136.1,479.3c0,9.8-7.8,17.7-17.4,17.7h-2.9c-9.6,0-17.4-8-17.4-17.7v-2.9
				c0-7.3,4.3-13.5,10.4-16.2c0.6,6.2,5.9,11.1,12.2,11.1h14.2c0.5,1.6,0.7,3.4,0.7,5.1L136.1,479.3L136.1,479.3z M124,456.2
				c1.2-9.5,8.5-17.3,18-18.6l88.2-12.3l3.1,30.8H124z M274.8,479.3c0,9.8-7.8,17.7-17.4,17.7h-2.9c-9.6,0-17.4-8-17.4-17.7v-2.9
				c0-1.7,0.2-3.3,0.7-4.8c4.1,5.7,10.7,9.4,18.2,9.4c7.5,0,14.1-3.7,18.2-9.4c0.4,1.6,0.7,3.2,0.7,4.8L274.8,479.3L274.8,479.3z
				 M245.1,423.3l10.9-1.5l10.9,1.5l-3.6,35.8c-0.4,3.9-3.5,6.8-7.3,6.8c-3.8,0-6.9-2.9-7.3-6.8L245.1,423.3z M277.2,409.6l-5.6-0.8
				c0,0,0,0,0,0s0,0,0,0l-13.9-1.9c-1.1-0.2-2.3-0.2-3.4,0l-13.9,1.9c0,0,0,0,0,0s0,0,0,0l-5.6,0.8v-23.5c0-6.6,5.2-11.9,11.6-11.9
				h19.1c6.4,0,11.6,5.3,11.6,11.9L277.2,409.6L277.2,409.6z M278.7,456.2l3.1-30.8l88.2,12.3c9.5,1.3,16.8,9.1,18,18.6H278.7z
				 M413.5,479.3L413.5,479.3c0,9.8-7.8,17.7-17.4,17.7h-2.9c-9.6,0-17.4-8-17.4-17.7v-2.9c0-1.8,0.3-3.5,0.8-5.1h14.2
				c6.4,0,11.6-4.9,12.2-11.1c6.1,2.7,10.4,9,10.4,16.2L413.5,479.3L413.5,479.3z"/>
			<path class="st0" d="M307.5,133.7c0-4.1-3.4-7.5-7.5-7.5h-88c-4.1,0-7.5,3.4-7.5,7.5s3.4,7.5,7.5,7.5h88
				C304.1,141.2,307.5,137.8,307.5,133.7z"/>
			<path class="st0" d="M232.1,102.4h47.8c4.1,0,7.5-3.4,7.5-7.5s-3.4-7.5-7.5-7.5h-47.8c-4.1,0-7.5,3.4-7.5,7.5
				C224.6,99,227.9,102.4,232.1,102.4z"/>
			<path class="st0" d="M279.9,165h-47.8c-4.1,0-7.5,3.4-7.5,7.5s3.4,7.5,7.5,7.5h47.8c4.1,0,7.5-3.4,7.5-7.5
				C287.4,168.4,284.1,165,279.9,165z"/>
		</g>
	</g>
</g>
</svg>
