<?xml version="1.0" encoding="utf-8"?>
<!-- Generator: Adobe Illustrator 23.0.0, SVG Export Plug-In . SVG Version: 6.00 Build 0)  -->
<svg version="1.1" id="Layer_1" xmlns="http://www.w3.org/2000/svg" xmlns:xlink="http://www.w3.org/1999/xlink" x="0px" y="0px"
	 viewBox="0 0 512 512" style="enable-background:new 0 0 512 512;" xml:space="preserve">
<g>
	<path d="M426,180h-30c-9.7,0-18.3,4.6-23.8,11.7L356,29c-1.7-16.8-14.3-29-30-29H186c-15.7,0-28.3,12.2-30,29l-16.3,162.7
		c-5.5-7.1-14.1-11.7-23.8-11.7H86c-16.5,0-30,13.5-30,30s13.5,30,30,30h5v50c0,14.8,10.8,27.2,25,29.6V330c0,11,9,20,20,20h30v10
		c0,3.5,0.6,6.9,1.7,10H136c-5.5,0-10,4.5-10,10s4.5,10,10,10h60h30v42h-70c-16.5,0-30,13.5-30,30v20v20c0,5.5,4.5,10,10,10
		s10-4.5,10-10v-10h100v10c0,5.5,4.5,10,10,10s10-4.5,10-10v-10h100v10c0,5.5,4.5,10,10,10s10-4.5,10-10v-20v-20
		c0-16.5-13.5-30-30-30h-70v-42h30c16.5,0,30-13.5,30-30v-10h30c11,0,20-9,20-20v-10.4c14.2-2.4,25-14.7,25-29.6v-50h5
		c16.5,0,30-13.5,30-30S442.5,180,426,180z M156,231l20-200c0.5-5.3,3.9-11,10.1-11h140c6.1,0,9.5,5.7,10,11l20,200
		c0.2,2.4-1,4.3-2,5.4c-2,2.2-5.1,3.6-8.1,3.6H166c-3,0-6.1-1.4-8.1-3.6C156.9,235.3,155.7,233.4,156,231L156,231z M246,280v-20h20
		v20H246L246,280z M76,210c0-5.5,4.5-10,10-10h30c5.5,0,10,4.5,10,10s-4.5,10-10,10H86C80.5,220,76,215.5,76,210z M117.9,299.5
		c-4-1.3-6.9-5.1-6.9-9.5v-50h5c7.6,0,14.6-2.9,19.9-7.6c0.2,6.4,2.7,12.5,7.2,17.5c5.8,6.4,14.3,10.1,22.9,10.1h60v20h-80
		C133.2,280,122.2,288.1,117.9,299.5z M366,462v10H146v-10c0-5.5,4.5-10,10-10h200C361.5,452,366,456.5,366,462z M266,432h-20v-42
		h20V432z M326,360c0,5.5-4.5,10-10,10H196c-5.5,0-10-4.5-10-10v-10h140V360z M376,330H136v-20c0-5.5,4.5-10,10-10h220
		c5.5,0,10,4.5,10,10V330z M401,290c0,4.4-2.9,8.2-6.9,9.5c-4.3-11.4-15.3-19.5-28.1-19.5h-80v-20h60c8.6,0,17.1-3.8,22.9-10.1
		c4.5-5,7-11.1,7.2-17.5c5.3,4.7,12.3,7.6,19.9,7.6h5V290L401,290z M426,220h-30c-5.5,0-10-4.5-10-10s4.5-10,10-10h30
		c5.5,0,10,4.5,10,10S431.5,220,426,220z"/>
	<path d="M226,76.2h60c5.5,0,10-4.5,10-10s-4.5-10-10-10h-60c-5.5,0-10,4.5-10,10S220.5,76.2,226,76.2z"/>
	<path d="M226,116.2h60c5.5,0,10-4.5,10-10s-4.5-10-10-10h-60c-5.5,0-10,4.5-10,10S220.5,116.2,226,116.2z"/>
</g>
</svg>
