<?xml version="1.0" encoding="utf-8"?>
<!-- Generator: Adobe Illustrator 23.0.0, SVG Export Plug-In . SVG Version: 6.00 Build 0)  -->
<svg version="1.1" id="Layer_1" xmlns="http://www.w3.org/2000/svg" xmlns:xlink="http://www.w3.org/1999/xlink" x="0px" y="0px"
	 viewBox="0 0 512 512" style="enable-background:new 0 0 512 512;" xml:space="preserve">
<style type="text/css">
	.st0{fill:#E51E26;}
</style>
<g id="Page-1">
	<g>
		<path id="Shape" d="M61.2,459.9v17.9c0,18.9,15.3,34.1,34.1,34.1h83.9c18.9,0,34.1-15.3,34.1-34.1v-17.1h85.3v17.1
			c0,18.9,15.3,34.1,34.1,34.1h83.9c18.9,0,34.1-15.3,34.1-34.1v-17.8c20.5-3.5,35.5-21.2,35.6-41.9V42.7
			c0-23.6-19.1-42.6-42.7-42.7h-374C46.2,0,27.1,19.1,27.1,42.7v34.1c0,4.7,3.8,8.5,8.5,8.5s8.5-3.8,8.5-8.5V42.7
			c0-14.1,11.5-25.6,25.6-25.6h374c14.1,0,25.6,11.5,25.6,25.6v375.5c0,14.1-11.5,25.6-25.6,25.6h-374c-14.1,0-25.6-11.5-25.6-25.6
			V119.5c0-4.7-3.8-8.5-8.5-8.5s-8.5,3.8-8.5,8.5v298.7C27.1,438.4,41.3,455.9,61.2,459.9L61.2,459.9z M433.8,460.8v17.1
			c0,9.4-7.6,17.1-17.1,17.1h-83.9c-9.4,0-17.1-7.6-17.1-17.1v-17.1H433.8z M196.3,460.8v17.1c0,9.4-7.6,17.1-17.1,17.1H95.3
			c-9.4,0-17.1-7.6-17.1-17.1v-17.1H196.3z"/>
		<path class="st0" d="M93.9,290.1c-4.7,0-8.5,3.8-8.5,8.5v76.8c0,14.1,11.5,25.6,25.6,25.6h290.1c14.1,0,25.6-11.5,25.6-25.6v-8.5
			c14.1,0,25.6-11.5,25.6-25.6v-51.2c0-14.1-11.5-25.6-25.6-25.6v-68.3c14.1,0,25.6-11.5,25.6-25.6v-51.2
			c0-14.1-11.5-25.6-25.6-25.6v-8.5c0-14.1-11.5-25.6-25.6-25.6H110.9c-14.1,0-25.6,11.5-25.6,25.6V256c0,4.7,3.8,8.5,8.5,8.5
			c4.7,0,8.5-3.8,8.5-8.5V85.3c0-4.7,3.8-8.5,8.5-8.5h290.1c4.7,0,8.5,3.8,8.5,8.5v8.5c-14.1,0-25.6,11.5-25.6,25.6v51.2
			c0,14.1,11.5,25.6,25.6,25.6v68.3c-14.1,0-25.6,11.5-25.6,25.6v51.2c0,14.1,11.5,25.6,25.6,25.6v8.5c0,4.7-3.8,8.5-8.5,8.5H110.9
			c-4.7,0-8.5-3.8-8.5-8.5v-76.8C102.4,294,98.6,290.1,93.9,290.1z M401.1,170.7v-51.2c0-4.7,3.8-8.5,8.5-8.5h17.1
			c4.7,0,8.5,3.8,8.5,8.5v51.2c0,4.7-3.8,8.5-8.5,8.5h-17.1C404.9,179.2,401.1,175.4,401.1,170.7z M401.1,341.3v-51.2
			c0-4.7,3.8-8.5,8.5-8.5h17.1c4.7,0,8.5,3.8,8.5,8.5v51.2c0,4.7-3.8,8.5-8.5,8.5h-17.1C404.9,349.9,401.1,346,401.1,341.3z"/>
		<path d="M161.4,269.6c18.7,45.1,66.7,70.8,114.6,61.2s82.4-51.6,82.4-100.4S323.9,139.5,276,130c-47.9-9.5-95.9,16.1-114.6,61.2
			C150.9,216.3,150.9,244.5,161.4,269.6L161.4,269.6z M215.6,155.2l3.1,7.5c1.1,2.9,3.7,4.9,6.8,5.4c3.1,0.4,6.1-0.8,8-3.3
			s2.2-5.8,1-8.6l-3.1-7.5c16-4.9,33.2-4.9,49.2,0l-3.1,7.5c-1.2,2.8-0.9,6.1,1,8.6s4.9,3.7,8,3.3c3.1-0.4,5.7-2.5,6.8-5.4l3.1-7.5
			c14.8,7.9,26.9,20,34.8,34.8l-7.5,3.1c-2.9,1.1-4.9,3.7-5.4,6.8c-0.4,3.1,0.8,6.1,3.3,8s5.8,2.2,8.6,1l7.5-3.1
			c4.9,16,4.9,33.2,0,49.2l-7.5-3.1c-2.8-1.2-6.1-0.9-8.6,1c-2.5,1.9-3.7,4.9-3.3,8c0.4,3.1,2.5,5.7,5.4,6.8l7.5,3.1
			c-7.9,14.8-20,26.9-34.8,34.8l-3.1-7.5c-1.1-2.9-3.7-4.9-6.8-5.4c-3.1-0.4-6.1,0.8-8,3.3c-1.9,2.5-2.2,5.8-1,8.6l3.1,7.5
			c-16,4.9-33.2,4.9-49.2,0l3.1-7.5c1.2-2.8,0.9-6.1-1-8.6c-1.9-2.5-4.9-3.7-8-3.3c-3.1,0.4-5.7,2.5-6.8,5.4l-3.1,7.5
			c-14.8-7.9-26.9-20-34.8-34.8l7.5-3.1c2.9-1.1,4.9-3.7,5.4-6.8c0.4-3.1-0.8-6.1-3.3-8c-2.5-1.9-5.8-2.2-8.6-1l-7.5,3.1
			c-4.9-16-4.9-33.2,0-49.2l7.5,3.1c2.8,1.2,6.1,0.9,8.6-1c2.5-1.9,3.7-4.9,3.3-8c-0.4-3.1-2.5-5.7-5.4-6.8l-7.5-3.1
			C188.7,175.2,200.8,163.1,215.6,155.2L215.6,155.2z"/>
		<path class="st0" d="M256.1,281.6c22.5,0,42.4-14.8,48.9-36.4c6.5-21.6-1.9-44.9-20.6-57.4c-18.8-12.5-43.5-11.3-60.9,3.1
			c-17.4,14.3-23.4,38.3-14.8,59.2C216.7,269.2,235.4,281.6,256.1,281.6z M242.9,198.8c17.4-7.2,37.4,1.1,44.6,18.5
			s-1.1,37.4-18.5,44.6c-17.4,7.2-37.4-1-44.6-18.5c-3.5-8.4-3.5-17.8,0-26.2C227.9,208.9,234.5,202.3,242.9,198.8z"/>
		<path class="st0" d="M170.7,93.9H128c-4.7,0-8.5,3.8-8.5,8.5v42.7c0,4.7,3.8,8.5,8.5,8.5c4.7,0,8.5-3.8,8.5-8.5v-34.1h34.1
			c4.7,0,8.5-3.8,8.5-8.5C179.2,97.7,175.4,93.9,170.7,93.9z"/>
	</g>
</g>
</svg>
