<?xml version="1.0" encoding="utf-8"?>
<!-- Generator: Adobe Illustrator 23.0.0, SVG Export Plug-In . SVG Version: 6.00 Build 0)  -->
<svg version="1.1" id="Capa_1" xmlns="http://www.w3.org/2000/svg" xmlns:xlink="http://www.w3.org/1999/xlink" x="0px" y="0px"
	 viewBox="0 0 512 512" style="enable-background:new 0 0 512 512;" xml:space="preserve">
<g>
	<g>
		<path d="M398.7,445.2c5.7-2.8,9.6-8.7,9.6-15.4v-36.8c6.4-4.9,10.6-12.7,10.6-21.4V197.7c5.9-4.9,9.6-12.4,9.6-20.7V158
			c0-14.8-12-26.9-26.7-26.9h-7.4V46.3c0-25.5-20.6-46.3-46-46.3H163.6c-25.4,0-46,20.8-46,46.3V131h-7.4
			c-14.7,0-26.7,12.1-26.7,26.9V177c0,8.3,3.7,15.7,9.6,20.7v173.8c0,8.7,4.2,16.5,10.6,21.4v27.1c0,6.8,3.9,12.7,9.6,15.5v64.1
			c0,6.8,5.5,12.4,12.3,12.4h28.9c6.8,0,12.3-5.5,12.3-12.4v-18.7h178.4v18.7c0,6.8,5.5,12.4,12.3,12.4h28.9
			c6.8,0,12.3-5.5,12.3-12.4V445.2 M132.7,46.3c0-17.3,13.9-31.3,31-31.3h184.7c17.1,0,31,14.1,31,31.3V131h-31.7V46.8
			c0-4.5-2.3-8.6-6.1-10.9c-3.8-2.3-8.4-2.5-12.4-0.5l-27.8,14c-3.3,1.7-7,2.6-10.7,2.6h-69.3c-3.7,0-7.4-0.9-10.7-2.6l-27.8-14
			c-4-2-8.6-1.8-12.4,0.5c-3.8,2.3-6.1,6.4-6.1,10.9V131h-31.7L132.7,46.3L132.7,46.3z M383.7,447v50h0h-23.5v-23.6
			c0-4.1-3.4-7.5-7.5-7.5H159.3c-4.1,0-7.5,3.4-7.5,7.5V497h-23.5v-59.5c10.6,0.4,21.3,1.5,31.8,3.3l15.2,2.6
			c14.5,2.4,29.3,3.7,44.1,3.7H383.7 M393.3,429.8c0,1.2-1,2.2-2.1,2.2H219.3c-13.9,0-27.9-1.2-41.6-3.5l-15.2-2.6
			c-13.6-2.3-27.5-3.5-41.3-3.7c-0.1,0-0.3,0-0.4,0c0,0,0,0,0,0c0,0,0,0,0,0c-1.2,0-2.1-1-2.1-2.2v-21.7c0.4,0,0.8,0,1.2,0h42.8
			c4.1,0,7.5-3.4,7.5-7.5s-3.4-7.5-7.5-7.5h-42.8c-6.5,0-11.7-5.3-11.7-11.9V203.9c0.7,0.1,1.4,0.1,2.1,0.1h233.3
			c-13.8,21.2-37.1,40.6-68,56.8c-36.5,19.1-82.2,32.9-132.2,39.8c-4.1,0.6-7,4.4-6.4,8.5c0.5,3.8,3.7,6.5,7.4,6.5
			c0.3,0,0.7,0,1-0.1C249.3,301.1,331.3,258.6,361,204h11.1c-8.3,49.9-26.2,94.8-50.9,127.1c-26.1,34.2-57.3,52.3-90.3,52.3h-41.1
			c-4.1,0-7.5,3.4-7.5,7.5s3.4,7.5,7.5,7.5h202.2c0.4,0,0.8,0,1.2,0V429.8z M392.1,383.4H285.3c17.3-9.9,33.6-24.5,47.9-43.3
			c26.5-34.8,45.6-83,54.1-136.2h14.5c0.7,0,1.4,0,2.1-0.1v167.6l0,0C403.9,378.1,398.6,383.4,392.1,383.4z M413.5,177
			c0,6.6-5.3,11.9-11.7,11.9H110.2c-6.5,0-11.7-5.3-11.7-11.9V158c0-6.6,5.3-11.9,11.7-11.9h169.2c4.1,0,7.5-3.4,7.5-7.5
			s-3.4-7.5-7.5-7.5H179.3V50.4l24.5,12.4c5.4,2.7,11.5,4.2,17.5,4.2h69.3c6,0,12.1-1.4,17.5-4.2l24.5-12.4V131h-25.4
			c-4.1,0-7.5,3.4-7.5,7.5s3.4,7.5,7.5,7.5h94.4c6.5,0,11.7,5.3,11.7,11.9L413.5,177L413.5,177z"/>
	</g>
</g>
</svg>
