<?xml version="1.0" encoding="utf-8"?>
<!-- Generator: Adobe Illustrator 23.0.0, SVG Export Plug-In . SVG Version: 6.00 Build 0)  -->
<svg version="1.1" id="Layer_1" xmlns="http://www.w3.org/2000/svg" xmlns:xlink="http://www.w3.org/1999/xlink" x="0px" y="0px"
	 viewBox="0 0 512 512" style="enable-background:new 0 0 512 512;" xml:space="preserve">
<style type="text/css">
	.st0{fill:#E51E26;}
</style>
<g>
	<path d="M472,184.8V168c0-39.7-32.3-72-72-72H112c-39.7,0-72,32.3-72,72v16.8C21.4,188.6,8,205,8,224v152c0,4.4,3.6,8,8,8h8v32
		c0,4.4,3.6,8,8,8h24c3.8,0,7.1-2.7,7.8-6.4l6.7-33.6h370.9l6.7,33.6c0.7,3.7,4,6.4,7.8,6.4h24c4.4,0,8-3.6,8-8v-32h8
		c4.4,0,8-3.6,8-8V224C504,205,490.6,188.6,472,184.8z M56,168c0-30.9,25.1-56,56-56h288c30.9,0,56,25.1,56,56v16.8
		c-18.6,3.8-32,20.2-32,39.2v48H88v-48c0-19-13.4-35.4-32-39.2V168z M424,288v48H88v-48H424z M49.4,408H40v-24h14.2L49.4,408z
		 M472,408h-9.4l-4.8-24H472V408z M488,368H24V224c0-13.3,10.7-24,24-24s24,10.7,24,24v120c0,4.4,3.6,8,8,8h352c4.4,0,8-3.6,8-8V224
		c0-13.3,10.7-24,24-24s24,10.7,24,24V368z"/>
	<path class="st0" d="M256,216c13.3,0,24-10.7,24-24s-10.7-24-24-24c-13.3,0-24,10.7-24,24C232,205.2,242.8,216,256,216z M256,184
		c4.4,0,8,3.6,8,8s-3.6,8-8,8s-8-3.6-8-8C248,187.6,251.6,184,256,184z"/>
	<path class="st0" d="M160,216c13.3,0,24-10.7,24-24s-10.7-24-24-24s-24,10.7-24,24C136,205.2,146.8,216,160,216z M160,184
		c4.4,0,8,3.6,8,8s-3.6,8-8,8s-8-3.6-8-8C152,187.6,155.6,184,160,184z"/>
	<path class="st0" d="M352,216c13.3,0,24-10.7,24-24s-10.7-24-24-24s-24,10.7-24,24C328,205.2,338.8,216,352,216z M352,184
		c4.4,0,8,3.6,8,8s-3.6,8-8,8s-8-3.6-8-8C344,187.6,347.6,184,352,184z"/>
	<path class="st0" d="M168,312h-64c-4.4,0-8,3.6-8,8s3.6,8,8,8h64c4.4,0,8-3.6,8-8S172.4,312,168,312z"/>
	<path class="st0" d="M200,312h-8c-4.4,0-8,3.6-8,8s3.6,8,8,8h8c4.4,0,8-3.6,8-8S204.4,312,200,312z"/>
</g>
</svg>
