<?xml version="1.0" encoding="utf-8"?>
<!-- Generator: Adobe Illustrator 23.0.0, SVG Export Plug-In . SVG Version: 6.00 Build 0)  -->
<svg version="1.1" id="Capa_1" xmlns="http://www.w3.org/2000/svg" xmlns:xlink="http://www.w3.org/1999/xlink" x="0px" y="0px"
	 viewBox="0 0 512 512" style="enable-background:new 0 0 512 512;" xml:space="preserve">
<style type="text/css">
	.st0{fill:#DB1F26;}
</style>
<g>
	<g>
		<g>
			<path class="st0" d="M45.4,479h172.8c6.8,0,12.4-5.5,12.4-12.4V293.9c0-6.8-5.5-12.4-12.4-12.4H45.4c-6.8,0-12.4,5.5-12.4,12.4
				v172.8C33,473.5,38.5,479,45.4,479z M147.4,463.4c-0.3,0.2-0.5,0.4-0.8,0.6h-45.1c-0.1,0-0.2-0.1-0.2-0.1
				c-5.3-3-8.7-8.6-8.7-14.7c0-9.2,7.5-16.8,16.8-16.8c4.1,0,7.5-3.4,7.5-7.5v-31.3H131v31.3c0,4.1,3.4,7.5,7.5,7.5
				c9.2,0,16.8,7.5,16.8,16.8C155.3,455,152.4,460.3,147.4,463.4z M48,296.5h167.5V464h-48.8c2.4-4.5,3.7-9.5,3.7-14.8
				c0-14.9-10.4-27.5-24.3-30.9v-25.2c2.8-1.1,4.9-3.8,4.9-7c0-4.1-3.4-7.5-7.5-7.5h-38.8c-4.1,0-7.5,3.4-7.5,7.5c0,3.2,2,5.9,4.9,7
				v25.2c-13.9,3.4-24.3,15.9-24.3,30.9c0,5.3,1.3,10.3,3.7,14.8H48V296.5z"/>
			<path d="M499.6,248.5h-74.6l10.4-41.8c0.3-1.3,0.4-2.6,0.3-4c4.1-5.5,6.3-12.2,6.3-19.2c0-12.9-7.6-24.4-19-29.5
				c-2.2-15.7-15.8-27.9-32.1-27.9s-29.9,12.1-32.1,27.9c-11.4,5.2-19,16.6-19,29.5c0,6.9,2.2,13.6,6.3,19.2c-0.1,1.3,0,2.6,0.3,3.9
				l10.4,41.8h-93.3V12.4C263.5,5.5,258,0,251.1,0H12.4C5.5,0,0,5.5,0,12.4v238.8c0,1.7,0.4,3.4,1,4.9c-0.6,1.5-1,3.1-1,4.9v238.8
				c0,6.8,5.5,12.4,12.4,12.4h238.8c1.7,0,3.4-0.4,4.9-1c1.5,0.6,3.1,1,4.9,1h238.8c6.8,0,12.4-5.5,12.4-12.4V260.9
				C512,254,506.5,248.5,499.6,248.5z M248.5,497H15V263.5h233.5V497z M248.5,248.5H15V15h233.5V248.5z M356.6,191.5
				c-1.2-2.4-1.9-5.1-1.9-7.9c0-8,5.4-14.9,13.1-16.9c3.4-0.9,5.8-4,5.6-7.5c0-0.2,0-0.4,0-0.6l0,0c0.1-9.6,7.9-17.4,17.5-17.4
				s17.4,7.8,17.5,17.4l0,0c0,0.2,0,0.4,0,0.6c-0.1,3.5,2.2,6.6,5.6,7.5c7.7,2,13.1,8.9,13.1,16.9c0,2.8-0.7,5.5-1.9,7.9
				c-0.6-0.1-1.1-0.1-1.7-0.1h-65.2C357.7,191.4,357.2,191.4,356.6,191.5z M420.1,206.4l-10.5,42.1h-37.4l-10.5-42.1H420.1z
				 M497,497H263.5V263.5H497V497z"/>
			<path d="M45.4,230.5h172.8c6.8,0,12.4-5.5,12.4-12.4V45.4c0-6.8-5.5-12.4-12.4-12.4H116.5c-4.1,0-7.5,3.4-7.5,7.5
				s3.4,7.5,7.5,7.5h99v167.5h-16.1v-18.7c0-6.8-5.5-12.4-12.4-12.4h-26.5V90c0-6.8-5.5-12.4-12.4-12.4h-26.8
				c-1.2-5.5-6.2-9.7-12.1-9.7H80.3c-6.8,0-12.4,5.5-12.4,12.4v135.2H48V48h37.5c4.1,0,7.5-3.4,7.5-7.5S89.6,33,85.5,33H45.4
				C38.5,33,33,38.5,33,45.4v172.8C33,225,38.5,230.5,45.4,230.5z M121.8,93.9v-1.2h23.8v91.8h-23.8
				C121.8,184.4,121.8,93.9,121.8,93.9z M112.1,199.4h72.4v16.1h-72.4V199.4z M82.9,82.9h23.8V90v3.9v90.8
				c-5.5,1.2-9.7,6.2-9.7,12.1v18.7H82.9V82.9z"/>
			<path class="st0" d="M293.9,479h101.9c4.1,0,7.5-3.4,7.5-7.5s-3.4-7.5-7.5-7.5h-99.3V296.5H464V464h-39.4c-4.1,0-7.5,3.4-7.5,7.5
				s3.4,7.5,7.5,7.5h42.1c6.8,0,12.4-5.5,12.4-12.4V293.9c0-6.8-5.5-12.4-12.4-12.4H293.9c-6.8,0-12.4,5.5-12.4,12.4v172.8
				C281.5,473.5,287,479,293.9,479z"/>
		</g>
	</g>
</g>
</svg>
