<?xml version="1.0" encoding="utf-8"?>
<!-- Generator: Adobe Illustrator 23.0.0, SVG Export Plug-In . SVG Version: 6.00 Build 0)  -->
<svg version="1.1" id="Capa_1" xmlns="http://www.w3.org/2000/svg" xmlns:xlink="http://www.w3.org/1999/xlink" x="0px" y="0px"
	 viewBox="0 0 512 512" style="enable-background:new 0 0 512 512;" xml:space="preserve">
<style type="text/css">
	.st0{fill:#DB1F26;}
</style>
<g>
	<g>
		<g>
			<path class="st0" d="M265.7,233.1h-19.4c-4.1,0-7.5,3.4-7.5,7.5s3.4,7.5,7.5,7.5h19.4c4.1,0,7.5-3.4,7.5-7.5
				S269.8,233.1,265.7,233.1z"/>
			<path d="M499.6,432.5h-71.1V380h71c6.9,0,12.5-5.6,12.5-12.5V339c0-6.9-5.6-12.5-12.5-12.5H347v-2.1c0-14.8-12.1-26.8-26.9-26.8
				h-37.2v-25.5h187.6c6.8,0,12.4-5.5,12.4-12.3v-44.6c0-0.5-0.1-1.1-0.2-1.6c0.1-0.6,0.2-1.3,0.2-2V38.3c0-6.8-5.5-12.3-12.4-12.3
				H153.8c-4.1,0-7.5,3.4-7.5,7.5s3.4,7.5,7.5,7.5h314.1v168H44.1V41h80.5c4.1,0,7.5-3.4,7.5-7.5s-3.4-7.5-7.5-7.5H41.5
				c-6.8,0-12.4,5.5-12.4,12.3v173.4c0,0.7,0.1,1.3,0.2,2c-0.1,0.5-0.2,1-0.2,1.6v44.6c0,6.8,5.5,12.3,12.4,12.3h187.6v25.5h-37.2
				c-14.8,0-26.9,12-26.9,26.8v2.1H12.5C5.6,326.5,0,332.1,0,339v28.5c0,6.9,5.6,12.5,12.5,12.5h71v52.4H12.4
				C5.5,432.5,0,438,0,444.8v28.9c0,6.8,5.5,12.3,12.4,12.3h487.3c6.8,0,12.4-5.5,12.4-12.3v-28.9C512,438,506.5,432.5,499.6,432.5z
				 M44.1,257.2V224h423.8v33.2H44.1z M267.9,272.2v25.5h-23.8v-25.5H267.9z M180,324.4c0-6.5,5.3-11.8,11.9-11.8h128.1
				c6.6,0,11.9,5.3,11.9,11.8v2.1H180V324.4z M15,365v-23.5h482V365L15,365L15,365z M376.4,403.6h-77.7c-9.5,0-17.2,7.7-17.2,17.1
				v9.6c0,0.7,0.1,1.4,0.1,2.1H98.5V380h315v52.4h-20.1c0.1-0.7,0.1-1.4,0.1-2.1v-9.6C393.6,411.3,385.9,403.6,376.4,403.6z
				 M497,471H15v-23.5h283.7c0,0,0,0,0,0s0,0,0,0h28.5c4.1,0,7.5-3.4,7.5-7.5s-3.4-7.5-7.5-7.5h-28.5c-1.2,0-2.2-1-2.2-2.1v-9.6
				c0-1.2,1-2.1,2.2-2.1h77.7c1.2,0,2.2,1,2.2,2.1v9.6c0,1.2-1,2.1-2.2,2.1h-18.5c-4.1,0-7.5,3.4-7.5,7.5s3.4,7.5,7.5,7.5h18.4
				c0,0,0,0,0,0s0,0,0,0H497V471z"/>
		</g>
	</g>
</g>
</svg>
