<?xml version="1.0" encoding="utf-8"?>
<!-- Generator: Adobe Illustrator 23.0.0, SVG Export Plug-In . SVG Version: 6.00 Build 0)  -->
<svg version="1.1" id="Capa_1" xmlns="http://www.w3.org/2000/svg" xmlns:xlink="http://www.w3.org/1999/xlink" x="0px" y="0px"
	 viewBox="0 0 512 512" style="enable-background:new 0 0 512 512;" xml:space="preserve">
<style type="text/css">
	.st0{fill:#DB1F26;}
</style>
<g>
	<g>
		<g>
			<path class="st0" d="M124,282.9c4.1,0,7.5-3.4,7.5-7.5v-38.8c0-4.1-3.4-7.5-7.5-7.5s-7.5,3.4-7.5,7.5v38.8
				C116.5,279.6,119.8,282.9,124,282.9z"/>
			<path class="st0" d="M240.5,116.9h19.4c4.1,0,7.5-3.4,7.5-7.5s-3.4-7.5-7.5-7.5h-19.4c-4.1,0-7.5,3.4-7.5,7.5
				C233,113.6,236.3,116.9,240.5,116.9z"/>
			<path d="M491.6,253.6v-72.8c0,0,0,0,0,0v-127h8c6.8,0,12.4-5.5,12.4-12.4V12.4C512,5.5,506.5,0,499.6,0H12.4C5.5,0,0,5.5,0,12.4
				v29.1c0,6.8,5.5,12.4,12.4,12.4h8v404.3h-7.9c-6.9,0-12.5,5.6-12.5,12.5v28.8c0,6.9,5.6,12.5,12.5,12.5h487
				c6.9,0,12.5-5.6,12.5-12.5v-28.8c0-6.9-5.6-12.5-12.5-12.5h-7.9V253.6L491.6,253.6z M497,473.2V497H15v-23.8H497z M196.8,77.7
				c-6.8,0-12.4,5.5-12.4,12.4v45.9h-11.9c-0.8,0-1.5,0.1-2.2,0.3V53.8h120.9v23.8H196.8z M291.2,92.7v43.2h-91.8V92.7H291.2z
				 M172.5,150.9h118.7v23.8h-53v-2.2c0-4.1-3.4-7.5-7.5-7.5s-7.5,3.4-7.5,7.5v2.2h-50.7c-0.8,0-1.5,0.1-2.2,0.3v-24.5
				C171,150.8,171.8,150.9,172.5,150.9z M247.5,230.8v11.9H214v-11.9c0-6.6,5.3-11.9,11.9-11.9h9.7
				C242.2,218.8,247.5,224.2,247.5,230.8z M172.5,189.7h50.7V204c-13.6,1.3-24.3,12.8-24.3,26.8V420c0,4.1,3.4,7.5,7.5,7.5
				s7.5-3.4,7.5-7.5V257.7h33.5v159.7h-16c-4.1,0-7.5,3.4-7.5,7.5s3.4,7.5,7.5,7.5h18.6c6.8,0,12.4-5.5,12.4-12.4V230.8
				c0-13.9-10.7-25.4-24.3-26.8v-14.3h53v268.4H170.3V189.4C171,189.6,171.8,189.7,172.5,189.7z M306.2,458.2V53.8h33.5v186.6v0
				v72.8v0v144.9H306.2z M435.1,390.5l-80.3-80.3v-51.6l35.7,35.7c1.5,1.5,3.4,2.2,5.3,2.2s3.8-0.7,5.3-2.2c2.9-2.9,2.9-7.7,0-10.6
				l-46.3-46.3V53.8h121.9v108.9L406.9,93c-2.9-2.9-7.7-2.9-10.6,0c-2.9,2.9-2.9,7.7,0,10.6l80.3,80.3v51.6l-35.7-35.7
				c-2.9-2.9-7.7-2.9-10.6,0c-2.9,2.9-2.9,7.7,0,10.6l46.3,46.3v201.5H354.7V331.4l69.7,69.7c1.5,1.5,3.4,2.2,5.3,2.2
				s3.8-0.7,5.3-2.2C438,398.2,438,393.4,435.1,390.5z M96.2,38.8c-4.1,0-7.5,3.4-7.5,7.5s3.4,7.5,7.5,7.5h59.2v404.3H35.4V53.8
				h31.3c4.1,0,7.5-3.4,7.5-7.5s-3.4-7.5-7.5-7.5H15V15h482v23.8H96.2z"/>
		</g>
	</g>
</g>
</svg>
